<?xml version="1.0" encoding="utf-8"?>
<!-- Generator: Adobe Illustrator 23.0.0, SVG Export Plug-In . SVG Version: 6.00 Build 0)  -->
<svg version="1.1" id="图层_1" xmlns="http://www.w3.org/2000/svg" xmlns:xlink="http://www.w3.org/1999/xlink" x="0px" y="0px"
	 viewBox="0 0 180.3 199.1" style="enable-background:new 0 0 180.3 199.1;" xml:space="preserve">
<style type="text/css">
	.st0{fill:none;stroke:#FFFFFF;stroke-width:4;stroke-linecap:round;stroke-linejoin:round;}
</style>
<title>ClipLOGO-Classic_White</title>
<g>
	<g>
		
			<image style="overflow:visible;opacity:0.75;" width="147" height="201" xlink:href="28C91649.png"  transform="matrix(1 0 0 1 20 -16.87)">
		</image>
		<g>
			<g>
				<path class="st0" d="M101.3,132.1c0.6,1,37.2-22.8,37.8-21.8c0.4,0.7-23.8,19.2-23.4,19.9c0.2,0.3,16.2-10,16.5-9.5"/>
				<path class="st0" d="M108.9,57.1c0.2,0.4,15.3-9.4,15.5-9c0.2,0.3-7.8,10.2-7.6,10.5c0.2,0.3,13-7.9,13.2-7.6
					c0.2,0.4-10,10.7-9.8,11c0.2,0.3,12.2-7.4,12.3-7.1c0.2,0.3-8.2,10.7-8,11c0.2,0.3,11.1-6.9,11.3-6.6c0.2,0.3-9.4,10.8-9.2,11.1
					c0.1,0.2,12.4-7.6,12.6-7.3c0.2,0.3-12.4,12-12.1,12.4c0.2,0.3,12.9-7.8,13.1-7.5c0.2,0.4-11.9,12.3-11.6,12.7
					c0.2,0.4,13.5-8.3,13.7-7.9c0.2,0.3-12.1,11.8-11.9,12.1c0.2,0.3,12.4-7.7,12.7-7.3c0.3,0.5-13.4,12.6-13.2,13
					c0.2,0.3,14.3-8.7,14.5-8.4c0.3,0.5-15,13.6-14.7,14c0.2,0.4,15-9.1,15.2-8.8c0.3,0.5-18,15.5-17.8,16c0.3,0.4,16.7-10.3,17-9.8
					c0.4,0.6-23.3,17.8-22.9,18.4c0.4,0.7,21.7-13.3,22.1-12.7"/>
				<path class="st0" d="M91.2,52.1c0.2,0.3,9.9-6.1,10.1-5.8c0.2,0.3-13.1,13-12.9,13.3c0.4,0.7,23.5-14.5,24-13.8
					c0.4,0.7-25.4,18.9-25,19.6c0.5,0.9,31.3-19.4,31.9-18.4c0.5,0.9-32.5,23.8-32.1,24.6c0.2,0.4,12.5-7.6,12.7-7.3
					c0.2,0.4-12.9,13-12.6,13.5c0.2,0.4,12.3-7.6,12.5-7.2c0.2,0.3-14.1,13.5-13.8,14c0.2,0.3,13.1-7.9,13.3-7.7
					c0.2,0.3-13.1,12.9-12.9,13.2c0.2,0.3,13.9-8.4,14.1-8.1c0.2,0.4-13.1,13.3-12.9,13.7c0.2,0.3,11.9-7.3,12.1-7
					c0.3,0.4-12.7,13.3-12.5,13.7c0.2,0.3,11.8-7.3,12-6.9c0.3,0.4-11.8,12.5-11.6,12.9c0.2,0.3,12.1-7.4,12.3-7.1
					c0.3,0.5-14.1,13.5-13.9,13.9c0.2,0.3,13.8-8.4,14-8.1"/>
				<path class="st0" d="M57.4,49.3c0.1,0.1,4-2.5,4.1-2.4c0.2,0.4-12,12.1-11.8,12.4c0.2,0.4,20.3-12.4,20.6-11.9
					c0.4,0.7-24.1,18.1-23.7,18.8c0.4,0.7,25-15.3,25.4-14.7c0.4,0.7-27.3,20.6-26.9,21.3c0.3,0.5,18.2-11.2,18.5-10.7
					c0.3,0.5-19.9,15.9-19.5,16.5c0.3,0.5,15.8-9.6,16-9.2c0.3,0.6-16.6,14.2-16.3,14.8c0.2,0.3,15.7-9.7,16-9.2
					c0.3,0.5-17.7,15.1-17.4,15.6c0.2,0.3,14.5-8.9,14.7-8.5c0.2,0.4-13.4,13.1-13.2,13.6C44,96,57,87.6,57.2,88
					c0.2,0.4-12.7,13-12.5,13.4c0.2,0.3,12.7-7.7,12.8-7.4c0.2,0.3-12.9,12.6-12.7,12.9c0.2,0.3,12.8-7.8,13-7.5
					c0.2,0.3-10.5,11.4-10.2,11.8c0.2,0.3,12.4-7.5,12.6-7.3c0.2,0.3-9.6,10.5-9.5,10.7c0.2,0.3,11.6-7.1,11.8-6.8
					c0.2,0.3-9,10.3-8.8,10.6c0.2,0.3,10.8-6.7,11-6.3c0.2,0.3-9,10.3-8.8,10.7c0.2,0.3,12.4-7.5,12.6-7.3c0.2,0.3-7.9,10-7.7,10.3
					c0.2,0.3,13.8-8.5,14-8.1c0.2,0.3-8,10.2-7.9,10.4c0.2,0.3,15.1-9.2,15.3-8.8c0.2,0.3-9.2,10.9-9,11.2
					c0.3,0.6,26.6-16.2,27-15.6c0.3,0.5-19.4,16.2-19.1,16.7c0.3,0.6,19.5-11.9,19.8-11.4c0.3,0.5-14.9,13.8-14.6,14.3
					c0.8,1.4,55.4-33.8,56.2-32.4c1,1.7-57.2,36.2-56.4,37.7c0.7,1.1,54.1-32.8,54.8-31.6c0.8,1.4-54.8,35.1-54.1,36.4
					c0.2,0.3,12.8-7.8,13-7.5c0.2,0.4-13,13-12.8,13.4c0.2,0.3,12.1-7.3,12.3-7.1c0.2,0.4-13.2,12.3-13,12.7
					c0.2,0.3,12.7-7.8,12.9-7.4c0.2,0.4-12.4,12.6-12.2,12.9c0.2,0.3,12.2-7.5,12.4-7.2c0.2,0.4-12.8,12.6-12.6,12.9
					c0.2,0.3,12.3-7.6,12.5-7.2c0.1,0.2-5.5,8.6-5.4,8.8c0.1,0.1,5.2-3.2,5.3-3"/>
			</g>
		</g>
	</g>
</g>
</svg>
